<svg width="15" height="15" viewBox="0 0 15 15" fill="none" xmlns="http://www.w3.org/2000/svg">
<g clip-path="url(#clip0_7966_12555)">
<path d="M0 2.001C0 1.51836 0.168924 1.12019 0.506757 0.806497C0.84459 0.492786 1.28379 0.335938 1.82432 0.335938C2.35522 0.335938 2.78474 0.490368 3.11293 0.799258C3.45077 1.11779 3.61969 1.53284 3.61969 2.04443C3.61969 2.50775 3.4556 2.89384 3.12741 3.20273C2.78958 3.52127 2.34556 3.68053 1.79537 3.68053H1.78089C1.25 3.68053 0.820468 3.52127 0.492278 3.20273C0.164088 2.8842 0 2.48362 0 2.001ZM0.188224 14.6699V4.9981H3.40251V14.6699H0.188224ZM5.1834 14.6699H8.39768V9.26934C8.39768 8.93149 8.4363 8.67087 8.51351 8.48748C8.64864 8.15929 8.85376 7.88178 9.12886 7.65495C9.40396 7.42811 9.74903 7.3147 10.1641 7.3147C11.2452 7.3147 11.7857 8.04346 11.7857 9.501V14.6699H15V9.12455C15 7.69597 14.6622 6.61248 13.9865 5.87406C13.3108 5.13565 12.418 4.76644 11.3079 4.76644C10.0627 4.76644 9.09266 5.30215 8.39768 6.37358V6.40254H8.3832L8.39768 6.37358V4.9981H5.1834C5.2027 5.30698 5.21236 6.2674 5.21236 7.87937C5.21236 9.49134 5.2027 11.7548 5.1834 14.6699Z" fill="#0A66C2"/>
</g>
<defs>
<clipPath id="clip0_7966_12555">
<rect width="15" height="15" fill="white"/>
</clipPath>
</defs>
</svg>
