<svg width="15" height="15" viewBox="0 0 15 15" fill="none" xmlns="http://www.w3.org/2000/svg">
<path d="M14.9578 4.40753C14.9218 3.60889 14.7927 3.06245 14.6097 2.58507C14.4177 2.09267 14.1626 1.67234 13.7455 1.25801C13.3285 0.843675 12.9114 0.582466 12.4193 0.393315C11.9422 0.207166 11.3961 0.0810649 10.5979 0.045036C9.79675 0.0090072 9.5417 0 7.50729 0C5.46988 0 5.21483 0.0090072 4.41667 0.045036C3.61851 0.0810649 3.0724 0.210168 2.59531 0.393315C2.10021 0.585468 1.68012 0.840673 1.26604 1.25801C0.851958 1.67534 0.590905 2.09267 0.401868 2.58507C0.218831 3.06245 0.0898053 3.60889 0.0537981 4.40753C0.0177909 5.20917 0.00878906 5.46437 0.00878906 7.5C0.00878906 9.53863 0.0177909 9.79383 0.0537981 10.5925C0.0898053 11.3911 0.218831 11.9376 0.401868 12.4149C0.593906 12.9073 0.848957 13.3277 1.26604 13.742C1.68012 14.1593 2.10021 14.4175 2.59231 14.6067C3.0694 14.7928 3.61551 14.9189 4.41367 14.955C5.21483 14.991 5.46988 15 7.50429 15C9.5417 15 9.79675 14.991 10.5949 14.955C11.3931 14.9189 11.9392 14.7898 12.4163 14.6067C12.9084 14.4145 13.3285 14.1593 13.7425 13.742C14.1566 13.3247 14.4177 12.9073 14.6067 12.4149C14.7927 11.9376 14.9188 11.3911 14.9548 10.5925C14.9908 9.79083 14.9998 9.53563 14.9998 7.5C14.9998 5.46437 14.9938 5.20617 14.9578 4.40753ZM13.6105 10.5324C13.5775 11.265 13.4545 11.6643 13.3525 11.9255C13.2174 12.2738 13.0524 12.526 12.7883 12.7902C12.5243 13.0544 12.2752 13.2136 11.9242 13.3547C11.6601 13.4568 11.261 13.5799 10.5319 13.6129C9.74274 13.6489 9.50569 13.6579 7.50129 13.6579C5.49689 13.6579 5.25984 13.6489 4.47068 13.6129C3.73853 13.5799 3.33946 13.4568 3.0784 13.3547C2.73033 13.2196 2.47828 13.0544 2.21423 12.7902C1.95018 12.526 1.79115 12.2768 1.65012 11.9255C1.5481 11.6613 1.42507 11.262 1.39207 10.5324C1.35606 9.74279 1.34706 9.5056 1.34706 7.5C1.34706 5.4944 1.35606 5.25721 1.39207 4.46757C1.42507 3.73499 1.5481 3.33567 1.65012 3.07446C1.78514 2.72618 1.95018 2.47398 2.21423 2.20977C2.47828 1.94556 2.72733 1.78643 3.0784 1.64532C3.34246 1.54323 3.74154 1.42014 4.47068 1.38711C5.25984 1.35108 5.49689 1.34207 7.50129 1.34207C9.50569 1.34207 9.74274 1.35108 10.5319 1.38711C11.264 1.42014 11.6631 1.54323 11.9242 1.64532C12.2722 1.78042 12.5243 1.94556 12.7883 2.20977C13.0524 2.47398 13.2114 2.72318 13.3525 3.07446C13.4545 3.33867 13.5775 3.73799 13.6105 4.46757C13.6465 5.25721 13.6555 5.4944 13.6555 7.5C13.6555 9.5056 13.6435 9.74279 13.6105 10.5324Z" fill="url(#paint0_linear_1_39276)"/>
<path d="M7.50121 3.64502C5.37078 3.64502 3.64844 5.3714 3.64844 7.5001C3.64844 9.63181 5.37378 11.3552 7.50121 11.3552C9.62863 11.3552 11.354 9.6258 11.354 7.5001C11.354 5.3684 9.63163 3.64502 7.50121 3.64502ZM7.50121 10.0011C6.12093 10.0011 5.00171 8.88121 5.00171 7.5001C5.00171 6.119 6.12093 4.9991 7.50121 4.9991C8.88148 4.9991 10.0007 6.119 10.0007 7.5001C10.0007 8.88121 8.88148 10.0011 7.50121 10.0011Z" fill="url(#paint1_linear_1_39276)"/>
<path d="M11.5037 4.39568C12.0009 4.39568 12.4039 3.99241 12.4039 3.49496C12.4039 2.9975 12.0009 2.59424 11.5037 2.59424C11.0065 2.59424 10.6035 2.9975 10.6035 3.49496C10.6035 3.99241 11.0065 4.39568 11.5037 4.39568Z" fill="#BC30A0"/>
<path d="M0 7.5C0 9.53863 0.0090018 9.79383 0.045009 10.5925C0.0810162 11.3911 0.210042 11.9376 0.393079 12.4149C0.585117 12.9073 0.840168 13.3277 1.25725 13.742C1.67133 14.1563 2.09142 14.4175 2.58352 14.6067C3.06061 14.7928 3.60672 14.9189 4.40488 14.955C5.20604 14.991 5.46109 15 7.4955 15C9.53291 15 9.78796 14.991 10.5861 14.955C11.3843 14.9189 11.9304 14.7898 12.4075 14.6067C12.8996 14.4145 13.3197 14.1593 13.7337 13.742C14.1478 13.3277 14.4089 12.9073 14.5979 12.4149C14.784 11.9376 14.91 11.3911 14.946 10.5925C14.982 9.79083 14.991 9.53563 14.991 7.5C14.991 5.46137 14.982 5.20617 14.946 4.40753C14.91 3.60889 14.781 3.06245 14.5979 2.58507C14.4059 2.09267 14.1508 1.67234 13.7337 1.25801C13.3227 0.840673 12.9026 0.582466 12.4105 0.393315C11.9334 0.207166 11.3873 0.0810649 10.5891 0.045036C9.78796 0.0090072 9.53291 0 7.4985 0C5.46109 0 5.20604 0.0090072 4.40788 0.045036C3.60972 0.0810649 3.06361 0.210168 2.58652 0.393315C2.09442 0.585468 1.67433 0.840673 1.26025 1.25801C0.846169 1.67534 0.585117 2.09267 0.396079 2.58507C0.210042 3.06245 0.0810162 3.60889 0.045009 4.40753C0.0090018 5.20617 0 5.46137 0 7.5ZM1.35327 7.5C1.35327 5.4974 1.36227 5.25721 1.39828 4.46757C1.43129 3.73499 1.55431 3.33567 1.65633 3.07446C1.79136 2.72618 1.95639 2.47398 2.22044 2.20977C2.4845 1.94556 2.73355 1.78643 3.08462 1.64532C3.34867 1.54323 3.74775 1.42014 4.4769 1.38711C5.26605 1.35108 5.5031 1.34207 7.5075 1.34207C9.5119 1.34207 9.74895 1.35108 10.5381 1.38711C11.2703 1.42014 11.6693 1.54323 11.9304 1.64532C12.2785 1.78042 12.5305 1.94556 12.7946 2.20977C13.0586 2.47398 13.2176 2.72318 13.3587 3.07446C13.4607 3.33867 13.5837 3.73799 13.6167 4.46757C13.6527 5.25721 13.6617 5.4944 13.6617 7.5C13.6617 9.5056 13.6527 9.74279 13.6167 10.5324C13.5837 11.265 13.4607 11.6643 13.3587 11.9255C13.2236 12.2738 13.0586 12.526 12.7946 12.7902C12.5305 13.0544 12.2815 13.2136 11.9304 13.3547C11.6663 13.4568 11.2673 13.5799 10.5381 13.6129C9.74895 13.6489 9.5119 13.6579 7.5075 13.6579C5.5031 13.6579 5.26605 13.6489 4.4769 13.6129C3.74475 13.5799 3.34567 13.4568 3.08462 13.3547C2.73655 13.2196 2.4845 13.0544 2.22044 12.7902C1.95639 12.526 1.79736 12.2768 1.65633 11.9255C1.55431 11.6613 1.43129 11.262 1.39828 10.5324C1.35927 9.74279 1.35327 9.5026 1.35327 7.5Z" fill="url(#paint2_linear_1_39276)"/>
<defs>
<linearGradient id="paint0_linear_1_39276" x1="12.6845" y1="1.147" x2="1.83294" y2="14.4423" gradientUnits="userSpaceOnUse">
<stop stop-color="#AE3DAE"/>
<stop offset="0.0468721" stop-color="#B23BA6"/>
<stop offset="0.1216" stop-color="#BD368E"/>
<stop offset="0.2148" stop-color="#CE2E69"/>
<stop offset="0.3216" stop-color="#E62335"/>
<stop offset="0.418" stop-color="#FF1800"/>
</linearGradient>
<linearGradient id="paint1_linear_1_39276" x1="9.33861" y1="4.40814" x2="5.39651" y2="11.0322" gradientUnits="userSpaceOnUse">
<stop stop-color="#E12F6A"/>
<stop offset="0.1705" stop-color="#EA3751"/>
<stop offset="0.3563" stop-color="#F13D3E"/>
<stop offset="0.5467" stop-color="#F64133"/>
<stop offset="0.7469" stop-color="#F7422F"/>
<stop offset="0.7946" stop-color="#F74C2F"/>
<stop offset="0.8743" stop-color="#F7652F"/>
<stop offset="0.9757" stop-color="#F78F2E"/>
<stop offset="1" stop-color="#F79A2E"/>
</linearGradient>
<linearGradient id="paint2_linear_1_39276" x1="10.8988" y1="-0.617519" x2="4.25868" y2="15.2102" gradientUnits="userSpaceOnUse">
<stop offset="0.2341" stop-color="#9E35A5" stop-opacity="0"/>
<stop offset="0.4512" stop-color="#D42F7F" stop-opacity="0.5"/>
<stop offset="0.7524" stop-color="#F7772E"/>
<stop offset="0.9624" stop-color="#FEF780"/>
</linearGradient>
</defs>
</svg>
