<svg width="24" height="24" viewBox="0 0 24 24" fill="none" xmlns="http://www.w3.org/2000/svg">
<g clip-path="url(#clip0_1_20760)">
<path d="M5.25 12C5.25 12.2967 5.16203 12.5867 4.99721 12.8334C4.83238 13.08 4.59812 13.2723 4.32403 13.3858C4.04994 13.4994 3.74834 13.5291 3.45737 13.4712C3.16639 13.4133 2.89912 13.2704 2.68934 13.0607C2.47956 12.8509 2.3367 12.5836 2.27882 12.2926C2.22094 12.0017 2.25065 11.7001 2.36418 11.426C2.47771 11.1519 2.66997 10.9176 2.91665 10.7528C3.16332 10.588 3.45333 10.5 3.75 10.5C4.14783 10.5 4.52936 10.658 4.81066 10.9393C5.09197 11.2206 5.25 11.6022 5.25 12ZM3.75 4.5C3.45333 4.5 3.16332 4.58797 2.91665 4.7528C2.66997 4.91762 2.47771 5.15189 2.36418 5.42597C2.25065 5.70006 2.22094 6.00166 2.27882 6.29264C2.3367 6.58361 2.47956 6.85088 2.68934 7.06066C2.89912 7.27044 3.16639 7.4133 3.45737 7.47118C3.74834 7.52906 4.04994 7.49935 4.32403 7.38582C4.59812 7.27229 4.83238 7.08003 4.99721 6.83336C5.16203 6.58668 5.25 6.29667 5.25 6C5.25 5.60218 5.09197 5.22064 4.81066 4.93934C4.52936 4.65804 4.14783 4.5 3.75 4.5ZM3.75 16.5C3.45333 16.5 3.16332 16.588 2.91665 16.7528C2.66997 16.9176 2.47771 17.1519 2.36418 17.426C2.25065 17.7001 2.22094 18.0017 2.27882 18.2926C2.3367 18.5836 2.47956 18.8509 2.68934 19.0607C2.89912 19.2704 3.16639 19.4133 3.45737 19.4712C3.74834 19.5291 4.04994 19.4994 4.32403 19.3858C4.59812 19.2723 4.83238 19.08 4.99721 18.8334C5.16203 18.5867 5.25 18.2967 5.25 18C5.25 17.6022 5.09197 17.2206 4.81066 16.9393C4.52936 16.658 4.14783 16.5 3.75 16.5ZM20.25 10.5H8.25C8.05109 10.5 7.86032 10.579 7.71967 10.7197C7.57902 10.8603 7.5 11.0511 7.5 11.25V12.75C7.5 12.9489 7.57902 13.1397 7.71967 13.2803C7.86032 13.421 8.05109 13.5 8.25 13.5H20.25C20.4489 13.5 20.6397 13.421 20.7803 13.2803C20.921 13.1397 21 12.9489 21 12.75V11.25C21 11.0511 20.921 10.8603 20.7803 10.7197C20.6397 10.579 20.4489 10.5 20.25 10.5ZM20.25 4.5H8.25C8.05109 4.5 7.86032 4.57902 7.71967 4.71967C7.57902 4.86032 7.5 5.05109 7.5 5.25V6.75C7.5 6.94891 7.57902 7.13968 7.71967 7.28033C7.86032 7.42098 8.05109 7.5 8.25 7.5H20.25C20.4489 7.5 20.6397 7.42098 20.7803 7.28033C20.921 7.13968 21 6.94891 21 6.75V5.25C21 5.05109 20.921 4.86032 20.7803 4.71967C20.6397 4.57902 20.4489 4.5 20.25 4.5ZM20.25 16.5H8.25C8.05109 16.5 7.86032 16.579 7.71967 16.7197C7.57902 16.8603 7.5 17.0511 7.5 17.25V18.75C7.5 18.9489 7.57902 19.1397 7.71967 19.2803C7.86032 19.421 8.05109 19.5 8.25 19.5H20.25C20.4489 19.5 20.6397 19.421 20.7803 19.2803C20.921 19.1397 21 18.9489 21 18.75V17.25C21 17.0511 20.921 16.8603 20.7803 16.7197C20.6397 16.579 20.4489 16.5 20.25 16.5Z" fill="black"/>
</g>
<defs>
<clipPath id="clip0_1_20760">
<rect width="24" height="24" fill="white"/>
</clipPath>
</defs>
</svg>
