<svg width="9" height="14" viewBox="0 0 9 14" fill="none" xmlns="http://www.w3.org/2000/svg">
<g clip-path="url(#clip0_1_35041)">
<path d="M4.50045 1.59748e-06C3.90931 -0.000518319 3.32388 0.125876 2.77764 0.371952C2.23141 0.618028 1.73509 0.978958 1.31709 1.43409C0.899088 1.88922 0.567605 2.42963 0.341605 3.02439C0.115606 3.61915 -0.000476031 4.25659 1.46715e-06 4.90025C1.46715e-06 8.57494 4.50045 14 4.50045 14C4.50045 14 9.00091 8.57494 9.00091 4.90025C9.00139 4.25659 8.8853 3.61915 8.6593 3.02439C8.4333 2.42963 8.10182 1.88922 7.68382 1.43409C7.26582 0.978958 6.7695 0.618028 6.22327 0.371952C5.67703 0.125876 5.0916 -0.000518319 4.50045 1.59748e-06ZM4.50045 6.64963C4.18251 6.64963 3.8717 6.54697 3.60734 6.35464C3.34298 6.16231 3.13693 5.88894 3.01526 5.5691C2.89359 5.24926 2.86175 4.89732 2.92378 4.55778C2.98581 4.21824 3.13891 3.90636 3.36374 3.66156C3.58856 3.41677 3.875 3.25006 4.18683 3.18252C4.49867 3.11498 4.8219 3.14965 5.11564 3.28213C5.40939 3.41461 5.66045 3.63896 5.8371 3.92681C6.01374 4.21465 6.10802 4.55307 6.10802 4.89926C6.10802 5.36349 5.93865 5.8087 5.63717 6.13696C5.3357 6.46522 4.92681 6.64963 4.50045 6.64963Z" fill="white"/>
</g>
<defs>
<clipPath id="clip0_1_35041">
<rect width="9" height="14" fill="white"/>
</clipPath>
</defs>
</svg>
