<svg width="15" height="15" viewBox="0 0 15 15" fill="none" xmlns="http://www.w3.org/2000/svg">
<path d="M4.6861 8.43725H3.0466C2.98446 8.43725 2.92486 8.41256 2.88092 8.36862C2.83698 8.32468 2.81229 8.26508 2.81229 8.20293V7.73431C2.81229 7.70354 2.81835 7.67307 2.83013 7.64464C2.8419 7.61622 2.85916 7.59039 2.88092 7.56863C2.90268 7.54687 2.92851 7.52961 2.95694 7.51784C2.98537 7.50606 3.01583 7.5 3.0466 7.5H4.6861V5.62483H3.0466C2.98446 5.62483 2.92486 5.60014 2.88092 5.5562C2.83698 5.51226 2.81229 5.45266 2.81229 5.39052V4.9219C2.81211 4.89101 2.81804 4.8604 2.82974 4.83181C2.84143 4.80323 2.85866 4.77724 2.88044 4.75533C2.90221 4.73343 2.92811 4.71605 2.95662 4.70419C2.98514 4.69233 3.01572 4.68623 3.0466 4.68623H4.6861V2.81241H3.0466C2.98493 2.81242 2.92574 2.78811 2.88187 2.74475C2.83801 2.70139 2.81301 2.64249 2.81229 2.58082V2.1122C2.81229 2.05005 2.83698 1.99046 2.88092 1.94651C2.92486 1.90257 2.98446 1.87789 3.0466 1.87789H4.6861V0.937245C4.68593 0.688845 4.58722 0.45066 4.41163 0.274951C4.23605 0.099242 3.99794 0.000359675 3.74954 0L0.937123 0C0.688606 0.00017989 0.450318 0.0989829 0.274589 0.274711C0.0988608 0.45044 5.78195e-05 0.688728 -0.00012207 0.937245L-0.00012207 14.0628C0.00534848 14.1405 0.0208722 14.2172 0.046061 14.291L4.6861 9.64955V8.43725ZM14.0586 10.3124H13.1213V11.9533C13.1213 12.0154 13.0966 12.075 13.0527 12.119C13.0087 12.1629 12.9491 12.1876 12.887 12.1876H12.4184C12.3562 12.1876 12.2966 12.1629 12.2527 12.119C12.2088 12.075 12.1841 12.0154 12.1841 11.9533V10.3124H10.3123V11.9533C10.3123 12.0154 10.2876 12.075 10.2437 12.119C10.1997 12.1629 10.1401 12.1876 10.078 12.1876H9.60936C9.57836 12.1879 9.5476 12.1821 9.51886 12.1705C9.49012 12.1589 9.46396 12.1417 9.44192 12.1199C9.41987 12.0981 9.40237 12.0722 9.39042 12.0436C9.37848 12.015 9.37233 11.9843 9.37233 11.9533V10.3124H7.49988V11.9533C7.49988 12.0154 7.47519 12.075 7.43125 12.119C7.38731 12.1629 7.32771 12.1876 7.26557 12.1876H6.79694C6.76617 12.1876 6.73571 12.1815 6.70728 12.1697C6.67885 12.158 6.65302 12.1407 6.63126 12.119C6.6095 12.0972 6.59224 12.0714 6.58047 12.0429C6.56869 12.0145 6.56263 11.984 6.56263 11.9533V10.3124H5.35033L0.708924 14.9538C0.782682 14.979 0.859384 14.9945 0.937123 15H14.0626C14.3111 14.9998 14.5494 14.901 14.7252 14.7253C14.9009 14.5496 14.9997 14.3113 14.9999 14.0628V11.2497C14.9997 11.0011 14.9009 10.7629 14.7252 10.5871C14.5494 10.4114 14.3111 10.3126 14.0626 10.3124H14.0586Z" fill="#EEA820"/>
</svg>
