<svg width="95" height="66" viewBox="0 0 95 66" fill="none" xmlns="http://www.w3.org/2000/svg">
<path d="M8.2138 55.7686C8.04294 55.7686 7.89648 55.9142 7.89648 56.0841C7.89648 56.2419 8.04294 56.3875 8.2138 56.3875C8.38467 56.3875 8.53112 56.2419 8.53112 56.0841C8.53112 55.9021 8.39687 55.7686 8.2138 55.7686Z" fill="#76777A"/>
<path d="M9.01947 55.7686C8.8486 55.7686 8.70215 55.9142 8.70215 56.0841C8.70215 56.2419 8.8486 56.3875 9.01947 56.3875C9.19033 56.3875 9.33678 56.2419 9.33678 56.0841C9.33678 55.9021 9.19033 55.7686 9.01947 55.7686Z" fill="#76777A"/>
<path d="M5.55316 52.3215C5.72402 52.3215 5.87047 52.1759 5.87047 52.006C5.87047 51.8361 5.73623 51.6904 5.55316 51.6904C5.37009 51.6904 5.23584 51.8361 5.23584 52.006C5.23584 52.1759 5.38229 52.3215 5.55316 52.3215Z" fill="#76777A"/>
<path d="M6.34613 52.3215C6.51699 52.3215 6.66344 52.1759 6.66344 52.006C6.66344 51.8361 6.51699 51.6904 6.34613 51.6904C6.17526 51.6904 6.02881 51.8361 6.02881 52.006C6.02881 52.1759 6.17526 52.3215 6.34613 52.3215Z" fill="#76777A"/>
<path d="M39.9945 52.0547H39.4209V54.4578H39.9945V52.0547Z" fill="#76777A"/>
<path d="M11.3871 52.3342C11.558 52.3342 11.7045 52.1886 11.7045 52.0187C11.7045 51.8488 11.5702 51.7031 11.3871 51.7031C11.2041 51.7031 11.0698 51.8488 11.0698 52.0187C11.0698 52.1886 11.2163 52.3342 11.3871 52.3342Z" fill="#76777A"/>
<path d="M45.5351 52.3342C45.706 52.3342 45.8524 52.1886 45.8524 52.0187C45.8524 51.8488 45.7182 51.7031 45.5351 51.7031C45.352 51.7031 45.2178 51.8488 45.2178 52.0187C45.2178 52.1886 45.3642 52.3342 45.5351 52.3342Z" fill="#76777A"/>
<path d="M33.0624 52.3342C33.2333 52.3342 33.3798 52.1886 33.3798 52.0187C33.3798 51.8488 33.2455 51.7031 33.0624 51.7031C32.8794 51.7031 32.7451 51.8488 32.7451 52.0187C32.7451 52.1886 32.8916 52.3342 33.0624 52.3342Z" fill="#76777A"/>
<path d="M18.8442 52.3215C19.015 52.3215 19.1615 52.1759 19.1615 52.006C19.1615 51.8361 19.0272 51.6904 18.8442 51.6904C18.6611 51.6904 18.5269 51.8361 18.5269 52.006C18.5269 52.1759 18.6733 52.3215 18.8442 52.3215Z" fill="#76777A"/>
<path d="M19.6371 52.3215C19.808 52.3215 19.9545 52.1759 19.9545 52.006C19.9545 51.8361 19.808 51.6904 19.6371 51.6904C19.4663 51.6904 19.3198 51.8361 19.3198 52.006C19.3198 52.1759 19.4663 52.3215 19.6371 52.3215Z" fill="#76777A"/>
<path d="M42.8749 51.5938H42.3013V55.4168H42.8749V51.5938Z" fill="#76777A"/>
<path d="M49.0254 52.8558H47.4877L49.1353 51.7635V51.1445L47.39 52.3097C46.9141 52.6252 46.7676 52.8073 46.7676 53.1471V53.3777H48.8912C49.355 53.3777 49.5502 53.5962 49.5502 54.0088V54.8827H45.8523V52.8437H45.2786V55.4046C45.2786 55.8172 45.0956 56.1206 44.644 56.1206H44.4731V56.6546H44.6928C45.4861 56.6546 45.8523 56.1813 45.8523 55.4046H50.1238V53.9603C50.1238 53.2442 49.7943 52.8315 49.0254 52.8315" fill="#76777A"/>
<path d="M40.9463 54.3365C40.9463 54.7006 40.7754 54.8827 40.4093 54.8827H38.481V55.4046H40.4581C41.1415 55.4046 41.5199 54.9798 41.5199 54.3244V51.5693H40.9463V54.3244V54.3365Z" fill="#76777A"/>
<path d="M39.6161 56.5449C39.6161 56.3871 39.6649 56.3143 39.8236 56.3143H40.1531V56.0352H39.8358C39.4696 56.0352 39.3232 56.1808 39.3232 56.5449V56.8605H39.0547V57.1396H40.2385V56.8605H39.6161V56.557V56.5449Z" fill="#76777A"/>
<path d="M54.5787 54.8949H53.3705V53.3778H53.9075C54.3834 53.3778 54.5787 53.6084 54.5787 54.0696V54.8949ZM54.0417 52.8559H52.7969V54.8949H51.7107V52.8559H51.137V55.4168C51.137 55.8294 50.954 56.1328 50.5024 56.1328H50.3315V56.6668H50.5512C51.3445 56.6668 51.6984 56.1935 51.7107 55.4168H55.1523V54.0089C55.1523 53.2807 54.8106 52.8438 54.0295 52.8438" fill="#76777A"/>
<path d="M22.7006 51.5938H22.127V55.4168H22.7006V51.5938Z" fill="#76777A"/>
<path d="M37.3341 54.895H36.5286V53.038H35.955V54.895H35.1495V53.038H34.5759V54.895H33.3188V52.856H32.7574V54.895H31.8909C31.6102 54.895 31.4882 54.7857 31.4882 54.4823V51.5938H30.9146V54.4095C30.9146 55.1134 31.1464 55.4168 31.9153 55.4168H37.8833V52.8438H37.3097V54.8828L37.3341 54.895Z" fill="#76777A"/>
<path d="M25.3248 53.3778V54.8949H24.1166V54.0696C24.1166 53.6084 24.3119 53.3778 24.7878 53.3778H25.3248ZM23.543 54.0089V55.4168H25.3248C25.3248 55.9144 25.2028 56.1328 24.7024 56.1328H23.9457V56.6547H24.7878C25.6666 56.6547 25.8984 56.1086 25.8984 55.2954V52.8438H24.6658C23.8847 52.8438 23.543 53.2685 23.543 54.0089Z" fill="#76777A"/>
<path d="M16.9765 54.8945H14.206V53.3774H16.3052C16.769 53.3774 16.9643 53.5959 16.9643 54.0086V54.8824L16.9765 54.8945ZM11.9238 54.8945H10.7155V54.0692C10.7155 53.608 10.9108 53.3774 11.3868 53.3774H11.9238V54.8945ZM6.43176 54.8945H5.22352V54.0692C5.22352 53.608 5.41879 53.3774 5.89476 53.3774H6.43176V54.8945ZM20.7721 54.8945H19.4906V52.8556H18.9292V54.8945H17.5623V53.9843C17.5623 53.2682 17.2328 52.8556 16.4639 52.8556H13.6568V54.8945H12.5218V52.8556H11.277C10.4959 52.8556 10.1541 53.2803 10.1541 54.0207V54.8945H8.94589V52.8556H8.38449V54.8945H7.01758V52.8556H5.77272C4.99163 52.8556 4.6499 53.2803 4.6499 54.0207V55.4286H21.3457V51.6055H20.7721V54.9067V54.8945Z" fill="#76777A"/>
<path d="M29.1569 52.8553H28.1928V53.3772H29.0349C29.4987 53.3772 29.6939 53.5957 29.6939 54.0083V54.8822H27.7778V55.4041H30.2676V53.9598C30.2676 53.2437 29.938 52.8311 29.1691 52.8311" fill="#76777A"/>
<path d="M5.62626 60.5995C4.95502 60.5995 4.6499 60.2718 4.6499 59.58C4.6499 58.8882 4.95502 58.5605 5.62626 58.5605H6.18767V58.8518H5.68729C5.22351 58.8518 5.04045 59.0339 5.00383 59.4344H6.15106V59.7257H5.00383C5.02824 60.1383 5.22351 60.3204 5.68729 60.3204H6.21208V60.6117H5.62626V60.5995Z" fill="#76777A"/>
<path d="M7.66482 59.701C7.66482 59.4583 7.56719 59.349 7.31089 59.349H6.94476V60.587H6.61523V59.082H7.37191C7.79907 59.082 7.99435 59.2762 7.99435 59.701V60.587H7.66482V59.6889V59.701Z" fill="#76777A"/>
<path d="M8.95836 60.5994C8.64104 60.5994 8.51899 60.478 8.51899 60.1625V59.3493H8.2749V59.0944H8.51899V58.7061H8.84851V59.0944H9.37331V59.3493H8.84851V60.1503C8.84851 60.296 8.89733 60.3445 9.04379 60.3445H9.37331V60.5994H8.95836Z" fill="#76777A"/>
<path d="M10.2884 59.0938C10.618 59.0938 10.7644 59.2394 10.7644 59.5671V59.7613H10.4349V59.6035C10.4349 59.4336 10.3617 59.3608 10.1908 59.3608H9.99554V60.5987H9.66602V59.0938H10.2884Z" fill="#76777A"/>
<path d="M11.6923 60.5987C11.2651 60.5987 11.0698 60.4045 11.0698 59.9797V59.0938H11.3993V59.9919C11.3993 60.2346 11.497 60.3438 11.7533 60.3438H12.1072V59.1059H12.4367V60.6109H11.6923V60.5987Z" fill="#76777A"/>
<path d="M13.535 60.3444C13.6693 60.3444 13.7303 60.2837 13.7303 60.1623C13.7303 60.0288 13.6693 59.9803 13.535 59.9803H13.2421C12.9614 59.9803 12.7905 59.8225 12.7905 59.5434C12.7905 59.2642 12.9492 59.1064 13.2421 59.1064H13.9866V59.3613H13.3275C13.1933 59.3613 13.1323 59.4099 13.1323 59.5434C13.1323 59.6769 13.1933 59.7254 13.3275 59.7254H13.6082C13.9011 59.7254 14.0598 59.8711 14.0598 60.1623C14.0598 60.4536 13.9011 60.5993 13.6082 60.5993H12.7905V60.3444H13.535Z" fill="#76777A"/>
<path d="M14.9505 60.5994C14.6332 60.5994 14.5112 60.478 14.5112 60.1625V59.3493H14.2671V59.0944H14.5112V58.7061H14.8407V59.0944H15.3655V59.3493H14.8407V60.1503C14.8407 60.296 14.8895 60.3445 15.036 60.3445H15.3655V60.5994H14.9505Z" fill="#76777A"/>
<path d="M17.4161 59.7006C17.4161 59.4579 17.3185 59.3608 17.0744 59.3608H16.8547V60.5987H16.5252V59.3608H15.976V60.5987H15.6465V59.0938H17.111C17.5382 59.0938 17.7335 59.2879 17.7335 59.7127V60.5987H17.4039V59.7006H17.4161Z" fill="#76777A"/>
<path d="M18.8314 60.5987C18.331 60.5987 18.0747 60.3438 18.0747 59.8462C18.0747 59.3486 18.331 59.0938 18.8314 59.0938H19.3074V59.3486H18.8558C18.5629 59.3486 18.4286 59.4579 18.4042 59.7127H19.283V59.9555H18.4042C18.4042 60.1982 18.5263 60.3438 18.8558 60.3438H19.3196V60.5987H18.8314Z" fill="#76777A"/>
<path d="M20.7722 59.701C20.7722 59.4583 20.6746 59.349 20.4183 59.349H20.0522V60.587H19.7227V59.082H20.4793C20.9065 59.082 21.1018 59.2762 21.1018 59.701V60.587H20.7722V59.6889V59.701Z" fill="#76777A"/>
<path d="M22.0658 60.5994C21.7485 60.5994 21.6264 60.478 21.6264 60.1625V59.3493H21.3823V59.0944H21.6264V58.7061H21.9559V59.0944H22.4807V59.3493H21.9559V60.1503C21.9559 60.296 22.0048 60.3445 22.1512 60.3445H22.4807V60.5994H22.0658Z" fill="#76777A"/>
<path d="M23.9213 59.9195C23.7748 59.9195 23.7016 59.9923 23.7016 60.1379C23.7016 60.2836 23.7748 60.3564 23.9213 60.3564H24.4217V59.9316H23.9213V59.9195ZM23.8358 60.5991C23.5429 60.5991 23.3599 60.4292 23.3599 60.1258C23.3599 59.8224 23.5307 59.6525 23.8358 59.6525H24.4217V59.6039C24.4217 59.4097 24.3484 59.3369 24.1654 59.3369H23.4697V59.082H24.1776C24.5925 59.082 24.7634 59.2519 24.7634 59.6646V60.587H23.848L23.8358 60.5991Z" fill="#76777A"/>
<path d="M26.2278 59.701C26.2278 59.4583 26.1302 59.349 25.8739 59.349H25.5077V60.587H25.1782V59.082H25.9349C26.3621 59.082 26.5573 59.2762 26.5573 59.701V60.587H26.2278V59.6889V59.701Z" fill="#76777A"/>
<path d="M27.7288 59.3489C27.3871 59.3489 27.2284 59.4945 27.2284 59.8465C27.2284 60.1985 27.3749 60.3441 27.7288 60.3441H27.9973V59.3489H27.7288ZM27.6434 60.599C27.143 60.599 26.8867 60.3441 26.8867 59.8465C26.8867 59.3489 27.143 59.094 27.6434 59.094H27.9973V58.5479H28.3269V60.5868H27.6434V60.599Z" fill="#76777A"/>
<path d="M30.2674 60.5995C29.7426 60.5995 29.4985 60.3447 29.4985 59.8349V58.5605H29.8281V59.7985C29.8281 60.1747 29.9745 60.3204 30.3529 60.3204H30.8532V60.6117H30.2796L30.2674 60.5995Z" fill="#76777A"/>
<path d="M31.1338 60.599H31.4633V59.094H31.1338V60.599ZM31.1338 58.912H31.4633V58.5479H31.1338V58.912Z" fill="#76777A"/>
<path d="M32.6473 59.3486C32.3056 59.3486 32.1469 59.4943 32.1469 59.8462C32.1469 60.1982 32.2934 60.3438 32.6473 60.3438H32.9158V59.3486H32.6473ZM32.5619 60.5987C32.0615 60.5987 31.8052 60.3438 31.8052 59.8462C31.8052 59.3486 32.0615 59.0938 32.5619 59.0938H33.2453V61.0842H32.9158V60.5866H32.5619V60.5987Z" fill="#76777A"/>
<path d="M34.2948 60.5987C33.8676 60.5987 33.6724 60.4045 33.6724 59.9797V59.0938H34.0019V59.9919C34.0019 60.2346 34.0995 60.3438 34.3558 60.3438H34.7097V59.1059H35.0393V60.6109H34.2948V60.5987Z" fill="#76777A"/>
<path d="M35.4785 60.599H35.808V59.094H35.4785V60.599ZM35.4785 58.912H35.808V58.5479H35.4785V58.912Z" fill="#76777A"/>
<path d="M36.992 59.3489C36.6503 59.3489 36.4916 59.4945 36.4916 59.8465C36.4916 60.1985 36.6381 60.3441 36.992 60.3441H37.2605V59.3489H36.992ZM36.9066 60.599C36.4062 60.599 36.1499 60.3441 36.1499 59.8465C36.1499 59.3489 36.4062 59.094 36.9066 59.094H37.2605V58.5479H37.59V60.5868H36.9066V60.599Z" fill="#76777A"/>
<path d="M38.5057 59.9195C38.3593 59.9195 38.2861 59.9923 38.2861 60.1379C38.2861 60.2836 38.3593 60.3564 38.5057 60.3564H39.0061V59.9316H38.5057V59.9195ZM38.4203 60.5991C38.1274 60.5991 37.9443 60.4292 37.9443 60.1258C37.9443 59.8224 38.1152 59.6525 38.4203 59.6525H39.0061V59.6039C39.0061 59.4097 38.9329 59.3369 38.7498 59.3369H38.0542V59.082H38.762C39.177 59.082 39.3479 59.2519 39.3479 59.6646V60.587H38.4325L38.4203 60.5991Z" fill="#76777A"/>
<path d="M40.2997 60.5994C39.9823 60.5994 39.8603 60.478 39.8603 60.1625V59.3493H39.6162V59.0944H39.8603V58.7061H40.1898V59.0944H40.7146V59.3493H40.1898V60.1503C40.1898 60.296 40.2386 60.3445 40.3851 60.3445H40.7146V60.5994H40.2997Z" fill="#76777A"/>
<path d="M41.0073 60.599H41.3368V59.094H41.0073V60.599ZM41.0073 58.912H41.3368V58.5479H41.0073V58.912Z" fill="#76777A"/>
<path d="M42.9236 59.8461C42.9236 59.5063 42.7771 59.3242 42.472 59.3242C42.1669 59.3242 42.0204 59.4941 42.0204 59.8461C42.0204 60.1981 42.1669 60.368 42.472 60.368C42.7771 60.368 42.9236 60.1981 42.9236 59.8461ZM42.472 60.6229C41.9716 60.6229 41.6909 60.368 41.6909 59.8461C41.6909 59.3242 41.9838 59.0693 42.472 59.0693C42.9602 59.0693 43.2531 59.3242 43.2531 59.8461C43.2531 60.368 42.9602 60.6229 42.472 60.6229Z" fill="#76777A"/>
<path d="M44.6565 59.701C44.6565 59.4583 44.5589 59.349 44.3026 59.349H43.9365V60.587H43.6069V59.082H44.3636C44.7908 59.082 44.986 59.2762 44.986 59.701V60.587H44.6565V59.6889V59.701Z" fill="#76777A"/>
<path d="M46.9998 60.5995C46.3408 60.5995 46.0234 60.2718 46.0234 59.58C46.0234 58.8882 46.3408 58.5605 46.9998 58.5605H47.5856V58.8518H47.073C46.5604 58.8518 46.3774 59.0703 46.3774 59.5922C46.3774 60.1141 46.5604 60.3204 47.073 60.3204H47.5978V60.6117H46.9998V60.5995Z" fill="#76777A"/>
<path d="M48.5741 60.5987C48.0737 60.5987 47.8174 60.3438 47.8174 59.8462C47.8174 59.3486 48.0737 59.0938 48.5741 59.0938H49.05V59.3486H48.5985C48.3056 59.3486 48.1713 59.4579 48.1469 59.7127H49.0256V59.9555H48.1469C48.1469 60.1982 48.2689 60.3438 48.5985 60.3438H49.0622V60.5987H48.5741Z" fill="#76777A"/>
<path d="M50.5144 59.701C50.5144 59.4583 50.4168 59.349 50.1605 59.349H49.7944V60.587H49.4648V59.082H50.2215C50.6487 59.082 50.844 59.2762 50.844 59.701V60.587H50.5144V59.6889V59.701Z" fill="#76777A"/>
<path d="M51.8085 60.5994C51.4911 60.5994 51.3691 60.478 51.3691 60.1625V59.3493H51.125V59.0944H51.3691V58.7061H51.6986V59.0944H52.2234V59.3493H51.6986V60.1503C51.6986 60.296 51.7474 60.3445 51.8939 60.3445H52.2234V60.5994H51.8085Z" fill="#76777A"/>
<path d="M53.1629 60.5987C52.6625 60.5987 52.4062 60.3438 52.4062 59.8462C52.4062 59.3486 52.6625 59.0938 53.1629 59.0938H53.6389V59.3486H53.1873C52.8944 59.3486 52.7602 59.4579 52.7358 59.7127H53.6145V59.9555H52.7358C52.7358 60.1982 52.8578 60.3438 53.1873 60.3438H53.6511V60.5987H53.1629Z" fill="#76777A"/>
<path d="M54.6766 59.0938C55.0062 59.0938 55.1526 59.2394 55.1526 59.5671V59.7613H54.8231V59.6035C54.8231 59.4336 54.7499 59.3608 54.579 59.3608H54.3837V60.5987H54.0542V59.0938H54.6766Z" fill="#76777A"/>
<path d="M80.147 46.3022V17.6715L72.9463 10.5107V53.4629L80.147 60.6236V46.3022Z" fill="#8B7D6E"/>
<path d="M72.9463 53.4624V24.8316L80.147 17.6709V46.3016L72.9463 53.4624Z" fill="#004A6E"/>
<path d="M62.1575 42.7211L72.9585 53.4622V24.8193L62.1575 35.5604C60.1682 37.5387 60.1682 40.7428 62.1575 42.7211Z" fill="url(#paint0_linear_1_18692)"/>
<path d="M90.9358 28.412L80.147 17.6709V46.3016L90.9358 35.5606C92.9251 33.5823 92.9251 30.3781 90.9358 28.3998V28.412Z" fill="url(#paint1_linear_1_18692)"/>
<path d="M11.5456 16.5059H6.92008V19.0303H10.911C13.1444 19.0303 14.0841 20.0498 14.0841 22.0645V26.2396H5.30908V28.7762H16.8057V21.9067C16.8057 18.4599 15.2069 16.5059 11.5456 16.5059Z" fill="#004F71"/>
<path d="M10.447 14.0179C11.2769 14.0179 11.9481 13.3504 11.9481 12.5251C11.9481 11.6998 11.2769 11.0322 10.447 11.0322C9.62926 11.0565 8.97021 11.724 8.95801 12.5372C8.97021 13.3504 9.62926 13.9936 10.447 14.0179Z" fill="#004F71"/>
<path d="M34.3801 14.0179C35.21 14.0179 35.8812 13.3504 35.8812 12.5251C35.8812 11.6998 35.21 11.0322 34.3801 11.0322C33.5502 11.0565 32.8911 11.724 32.8911 12.5372C32.9033 13.3504 33.5624 14.0057 34.3801 14.0179Z" fill="#004F71"/>
<path d="M46.7433 11.0322C45.9134 11.0565 45.2544 11.724 45.2544 12.5372C45.2666 13.3504 45.9256 14.0057 46.7433 14.0179C47.5733 14.0179 48.2445 13.3504 48.2445 12.5251C48.2445 11.6998 47.5733 11.0322 46.7433 11.0322Z" fill="#004F71"/>
<path d="M45.401 26.2643H39.6893V16.5063H33.7701C30.0477 16.5063 28.4245 18.5575 28.4245 22.065V26.2401H24.6533C23.3353 26.2401 22.725 25.6939 22.725 24.2739V10.5107H20.0034V23.9826C20.0034 27.3202 21.1384 28.7766 24.7998 28.7766H48.0982V16.5185H45.4132V26.2765M36.9555 26.2765H31.1706V22.332C31.1706 20.1474 32.1103 19.0429 34.3681 19.0429H36.9555V26.2765Z" fill="#004F71"/>
<path d="M54.5541 10.5107H51.8325V28.7766H54.5541V10.5107Z" fill="#004F71"/>
<path d="M54.5663 30.4512L51.8325 32.9756V35.3909L54.5663 32.8664V30.4512Z" fill="#004F71"/>
<path d="M15.0117 37.042H10.2886V46.4359H12.461V38.8018H14.67C16.1467 38.8018 16.7448 39.3965 16.7448 40.8651V46.4359H18.9172V40.9258C18.9172 38.2435 17.7089 37.042 15.0117 37.042Z" fill="#8B7D6E"/>
<path d="M21.9435 36.3981V37.0413H20.4546V38.7769H21.9435V46.4352H24.1159V38.7769H26.9962V37.0413H24.1159V36.4587C24.1159 35.6334 24.4089 35.3422 25.2388 35.3422H27.0694V33.6309H24.7384C22.7612 33.6309 21.9557 34.4319 21.9557 36.3981" fill="#8B7D6E"/>
<path d="M32.5371 37.042H28.119V38.7776H32.5004C33.6355 38.7776 34.026 39.1659 34.026 40.3068V40.5374H30.5233C28.656 40.5374 27.5454 41.6418 27.5454 43.4988C27.5454 45.3557 28.656 46.4602 30.5233 46.4602H36.1984V40.7073C36.1984 38.1222 35.1366 37.0663 32.5371 37.0663M34.0382 42.2608V44.761H30.9993C30.1694 44.761 29.7422 44.3362 29.7422 43.5109C29.7422 42.6856 30.1694 42.2608 30.9993 42.2608H34.0382Z" fill="#8B7D6E"/>
<path d="M41.0559 34.6143H38.8713V37.0416H37.3945V38.7772H38.8713V43.6805C38.8713 45.6466 39.6768 46.4477 41.6539 46.4477H44.2535V44.7242H42.1787C41.3488 44.7242 41.0559 44.4329 41.0559 43.6076V38.7772H44.2901V37.0416H41.0559V34.6143Z" fill="#8B7D6E"/>
<path d="M50.6606 37.0413H48.1099V33.6309H45.9375V46.4352H48.1099V38.8011H50.3067C51.7835 38.8011 52.3815 39.3958 52.3815 40.8644V46.4352H54.5539V40.9251C54.5539 38.2429 53.3456 37.0413 50.6484 37.0413" fill="#8B7D6E"/>
<path d="M7.49369 37.0537H5.30908V46.4355H7.49369V37.0537Z" fill="#8B7D6E"/>
<path d="M7.5059 31.5801L5.30908 33.6312V35.7309L7.5059 33.6797V31.5801Z" fill="#8B7D6E"/>
<defs>
<linearGradient id="paint0_linear_1_18692" x1="65.6586" y1="46.4213" x2="80.1363" y2="31.8629" gradientUnits="userSpaceOnUse">
<stop stop-color="#00796F"/>
<stop offset="1" stop-color="#C7D300"/>
</linearGradient>
<linearGradient id="paint1_linear_1_18692" x1="65.5982" y1="46.4644" x2="87.3104" y2="24.631" gradientUnits="userSpaceOnUse">
<stop stop-color="#00796F"/>
<stop offset="1" stop-color="#C7D300"/>
</linearGradient>
</defs>
</svg>
